####
#
# OBJ File Generated by Meshlab
#
####
# Object body3.obj
#
# Vertices: 26
# Faces: 48
#
####
vn 2.618056 -2.627968 1.517367
v -0.094781 -0.011898 0.006869
vn 2.617870 -3.034494 0.000000
v -0.094781 -0.013739 0.000000
vn -2.617870 -3.034494 -0.000000
v -0.351903 -0.013739 0.000000
vn -2.618056 -2.627966 1.517365
v -0.351903 -0.011898 0.006869
vn 2.618056 -1.517365 2.627966
v -0.094781 -0.006869 0.011898
vn -2.618056 -1.517367 2.627968
v -0.351903 -0.006869 0.011898
vn 2.617870 0.000000 3.034494
v -0.094781 0.000000 0.013739
vn -2.617904 -0.000054 3.034509
v -0.351903 0.000000 0.013739
vn 2.618060 1.517365 2.627970
v -0.094781 0.006869 0.011898
vn -2.617919 1.517421 2.627872
v -0.351903 0.006870 0.011898
vn 2.618060 2.627970 1.517365
v -0.094781 0.011898 0.006869
vn -2.618155 2.628078 1.517256
v -0.351903 0.011898 0.006869
vn 2.617870 3.034494 -0.000000
v -0.094781 0.013739 0.000000
vn -2.617870 3.034494 0.000000
v -0.351903 0.013739 0.000000
vn 2.618056 2.627968 -1.517367
v -0.094781 0.011898 -0.006869
vn -2.618151 2.628075 -1.517256
v -0.351903 0.011898 -0.006869
vn 2.618057 1.517366 -2.627966
v -0.094781 0.006869 -0.011898
vn -2.617916 1.517424 -2.627870
v -0.351903 0.006870 -0.011898
vn 2.617871 -0.000001 -3.034495
v -0.094781 0.000000 -0.013739
vn -2.617906 -0.000055 -3.034509
v -0.351903 0.000000 -0.013739
vn 2.618056 -1.517367 -2.627968
v -0.094781 -0.006869 -0.011898
vn -2.618056 -1.517365 -2.627966
v -0.351903 -0.006869 -0.011898
vn 2.618056 -2.627966 -1.517365
v -0.094781 -0.011898 -0.006869
vn -2.618056 -2.627968 -1.517367
v -0.351903 -0.011898 -0.006869
vn -6.283185 0.000000 0.000000
v -0.351903 0.000000 0.000000
vn 6.283185 0.000000 0.000000
v -0.094781 0.000000 0.000000
# 26 vertices, 0 vertices normals

f 25//25 3//3 4//4
f 26//26 1//1 2//2
f 25//25 4//4 6//6
f 26//26 5//5 1//1
f 25//25 6//6 8//8
f 26//26 7//7 5//5
f 25//25 8//8 10//10
f 26//26 9//9 7//7
f 25//25 10//10 12//12
f 26//26 11//11 9//9
f 25//25 12//12 14//14
f 26//26 13//13 11//11
f 25//25 14//14 16//16
f 26//26 15//15 13//13
f 25//25 16//16 18//18
f 26//26 17//17 15//15
f 25//25 18//18 20//20
f 26//26 19//19 17//17
f 25//25 20//20 22//22
f 26//26 21//21 19//19
f 25//25 22//22 24//24
f 26//26 23//23 21//21
f 25//25 24//24 3//3
f 26//26 2//2 23//23
f 2//2 3//3 24//24
f 2//2 24//24 23//23
f 23//23 24//24 22//22
f 23//23 22//22 21//21
f 21//21 22//22 20//20
f 21//21 20//20 19//19
f 19//19 20//20 18//18
f 19//19 18//18 17//17
f 17//17 18//18 16//16
f 17//17 16//16 15//15
f 15//15 16//16 14//14
f 15//15 14//14 13//13
f 13//13 14//14 12//12
f 13//13 12//12 11//11
f 11//11 12//12 10//10
f 11//11 10//10 9//9
f 9//9 10//10 8//8
f 9//9 8//8 7//7
f 7//7 8//8 6//6
f 7//7 6//6 5//5
f 5//5 6//6 4//4
f 5//5 4//4 1//1
f 1//1 4//4 3//3
f 1//1 3//3 2//2
# 48 faces, 0 coords texture

# End of File
