####
#
# OBJ File Generated by Meshlab
#
####
# Object quad.obj
#
# Vertices: 192
# Faces: 348
#
####
vn -0.653227 0.757162 0.000000
v 0.094781 0.013739 0.000000
vn -0.653227 0.655722 -0.378581
v 0.094781 0.011898 -0.006869
vn -0.653227 0.378581 -0.655721
v 0.094781 0.006869 -0.011898
vn -0.653227 0.000000 -0.757162
v 0.094781 0.000000 -0.013739
vn -0.653227 -0.378582 -0.655721
v 0.094781 -0.006869 -0.011898
vn -0.653226 -0.655723 -0.378581
v 0.094781 -0.011898 -0.006869
vn -0.653226 -0.757163 0.000000
v 0.094781 -0.013739 0.000000
vn -0.653226 -0.655723 0.378581
v 0.094781 -0.011898 0.006869
vn -0.653227 -0.378582 0.655721
v 0.094781 -0.006869 0.011898
vn -0.653227 -0.000000 0.757162
v 0.094781 0.000000 0.013739
vn -0.653227 0.378581 0.655722
v 0.094781 0.006869 0.011898
vn -0.653227 0.655721 0.378582
v 0.094781 0.011898 0.006869
vn 0.653227 0.757162 0.000001
v 0.351903 0.013739 0.000000
vn 0.653227 0.655722 -0.378581
v 0.351903 0.011898 -0.006869
vn 0.653227 0.378581 -0.655721
v 0.351903 0.006869 -0.011898
vn 0.653227 0.000001 -0.757162
v 0.351903 0.000000 -0.013739
vn 0.653227 -0.378581 -0.655721
v 0.351903 -0.006869 -0.011898
vn 0.653227 -0.655721 -0.378582
v 0.351903 -0.011898 -0.006869
vn 0.653226 -0.757163 -0.000001
v 0.351903 -0.013739 0.000000
vn 0.653227 -0.655722 0.378581
v 0.351903 -0.011898 0.006869
vn 0.653226 -0.378582 0.655722
v 0.351903 -0.006869 0.011898
vn 0.653227 -0.000001 0.757162
v 0.351903 0.000000 0.013739
vn 0.653227 0.378581 0.655722
v 0.351903 0.006869 0.011898
vn 0.653227 0.655721 0.378582
v 0.351903 0.011898 0.006869
vn -1.000000 -0.000001 -0.000000
v 0.094781 0.000000 0.000000
vn 1.000000 0.000000 0.000000
v 0.351903 0.000000 0.000000
vn -0.000000 0.000000 -1.000000
v 0.332434 0.000000 0.031600
vn 0.923877 -0.382681 -0.002497
v 0.487245 -0.064125 0.037452
vn 0.707105 -0.707105 -0.002496
v 0.450921 -0.118487 0.037452
vn -0.000000 -0.000000 1.000000
v 0.332434 0.000000 0.044240
vn 0.382683 -0.923877 -0.002497
v 0.396559 -0.154811 0.037452
vn 0.000000 -0.999997 -0.002497
v 0.332434 -0.167566 0.037452
vn -0.382682 -0.923877 -0.002496
v 0.268310 -0.154811 0.037452
vn -0.707104 -0.707105 -0.002496
v 0.213947 -0.118487 0.037452
vn -0.923877 -0.382682 -0.002496
v 0.177624 -0.064125 0.037452
vn -0.999997 -0.000000 -0.002497
v 0.164868 -0.000000 0.037452
vn -0.923877 0.382682 -0.002497
v 0.177624 0.064125 0.037452
vn -0.707105 0.707105 -0.002497
v 0.213947 0.118487 0.037452
vn -0.382682 0.923877 -0.002497
v 0.268310 0.154811 0.037452
vn -0.000000 0.999997 -0.002496
v 0.332434 0.167566 0.037452
vn 0.382682 0.923877 -0.002497
v 0.396559 0.154811 0.037452
vn 0.707104 0.707105 -0.002495
v 0.450921 0.118487 0.037452
vn 0.923877 0.382683 -0.002496
v 0.487245 0.064125 0.037452
vn 0.999997 0.000001 -0.002497
v 0.500000 0.000000 0.037452
vn -0.000001 1.000000 -0.000000
v 0.000000 -0.094781 0.000000
vn 0.757162 0.653227 -0.000000
v 0.013739 -0.094781 0.000000
vn 0.655722 0.653227 -0.378581
v 0.011898 -0.094781 -0.006869
vn 0.000000 -1.000000 0.000000
v -0.000000 -0.351903 0.000000
vn 0.655722 -0.653227 -0.378581
v 0.011898 -0.351903 -0.006869
vn 0.757162 -0.653227 0.000000
v 0.013739 -0.351903 0.000000
vn 0.378582 0.653227 -0.655721
v 0.006869 -0.094781 -0.011898
vn 0.378582 -0.653227 -0.655721
v 0.006869 -0.351903 -0.011898
vn 0.000000 0.653227 -0.757162
v 0.000000 -0.094781 -0.013739
vn 0.000000 -0.653227 -0.757162
v -0.000000 -0.351903 -0.013739
vn -0.378581 0.653227 -0.655721
v -0.006869 -0.094781 -0.011898
vn -0.378581 -0.653227 -0.655722
v -0.006869 -0.351903 -0.011898
vn -0.655723 0.653226 -0.378581
v -0.011898 -0.094781 -0.006869
vn -0.655721 -0.653227 -0.378582
v -0.011898 -0.351903 -0.006869
vn -0.757163 0.653226 0.000000
v -0.013739 -0.094781 0.000000
vn -0.757163 -0.653226 -0.000001
v -0.013739 -0.351903 0.000000
vn -0.655723 0.653226 0.378581
v -0.011898 -0.094781 0.006869
vn -0.655722 -0.653226 0.378581
v -0.011898 -0.351903 0.006869
vn -0.378582 0.653227 0.655721
v -0.006869 -0.094781 0.011898
vn -0.378582 -0.653227 0.655721
v -0.006870 -0.351903 0.011898
vn -0.000000 0.653227 0.757162
v -0.000000 -0.094781 0.013739
vn -0.000001 -0.653227 0.757162
v -0.000000 -0.351903 0.013739
vn 0.378580 0.653227 0.655722
v 0.006869 -0.094781 0.011898
vn 0.378580 -0.653227 0.655722
v 0.006869 -0.351903 0.011898
vn 0.655721 0.653227 0.378582
v 0.011898 -0.094781 0.006869
vn 0.655721 -0.653227 0.378582
v 0.011898 -0.351903 0.006869
vn 0.382683 -0.923876 -0.002497
v 0.064125 -0.487245 0.037452
vn 0.000000 0.000000 -1.000000
v -0.000000 -0.332434 0.031600
vn 0.000001 -0.999997 -0.002497
v 0.000000 -0.500000 0.037452
vn -0.000000 0.000000 1.000000
v -0.000000 -0.332434 0.044240
vn 0.707105 -0.707104 -0.002497
v 0.118487 -0.450921 0.037452
vn 0.923877 -0.382682 -0.002496
v 0.154811 -0.396559 0.037452
vn 0.999997 0.000000 -0.002496
v 0.167566 -0.332434 0.037452
vn 0.923877 0.382682 -0.002496
v 0.154811 -0.268310 0.037452
vn 0.707105 0.707104 -0.002496
v 0.118487 -0.213947 0.037452
vn 0.382682 0.923877 -0.002496
v 0.064125 -0.177624 0.037452
vn -0.000000 0.999997 -0.002496
v -0.000000 -0.164868 0.037452
vn -0.382682 0.923877 -0.002496
v -0.064125 -0.177624 0.037452
vn -0.707105 0.707104 -0.002497
v -0.118487 -0.213947 0.037452
vn -0.923877 0.382682 -0.002495
v -0.154811 -0.268310 0.037452
vn -0.999997 0.000000 -0.002497
v -0.167566 -0.332434 0.037452
vn -0.923877 -0.382682 -0.002496
v -0.154811 -0.396559 0.037452
vn -0.707105 -0.707104 -0.002496
v -0.118487 -0.450921 0.037452
vn -0.382682 -0.923877 -0.002497
v -0.064125 -0.487245 0.037452
vn -0.999997 -0.000001 -0.002497
v -0.500000 0.000000 0.037452
vn -0.923877 0.382682 -0.002496
v -0.487245 0.064125 0.037452
vn 0.000000 -0.000000 -1.000000
v -0.332434 0.000000 0.031600
vn 0.000000 0.000000 1.000000
v -0.332434 0.000000 0.044240
vn -0.707104 0.707105 -0.002496
v -0.450921 0.118487 0.037452
vn -0.382682 0.923877 -0.002497
v -0.396559 0.154811 0.037452
vn 0.000000 0.999997 -0.002497
v -0.332434 0.167566 0.037452
vn 0.382682 0.923877 -0.002498
v -0.268310 0.154811 0.037452
vn 0.707104 0.707105 -0.002496
v -0.213947 0.118487 0.037452
vn 0.923877 0.382682 -0.002495
v -0.177624 0.064125 0.037452
vn 0.999997 0.000000 -0.002497
v -0.164868 0.000000 0.037452
vn 0.923877 -0.382682 -0.002496
v -0.177624 -0.064125 0.037452
vn 0.707104 -0.707105 -0.002495
v -0.213947 -0.118487 0.037452
vn 0.382682 -0.923877 -0.002497
v -0.268310 -0.154811 0.037452
vn 0.000000 -0.999997 -0.002496
v -0.332434 -0.167566 0.037452
vn -0.382683 -0.923876 -0.002495
v -0.396559 -0.154811 0.037452
vn -0.707105 -0.707104 -0.002496
v -0.450921 -0.118487 0.037452
vn -0.923877 -0.382683 -0.002497
v -0.487245 -0.064125 0.037452
vn 0.653227 -0.655721 0.378582
v -0.094781 -0.011898 0.006869
vn 0.653227 -0.757162 -0.000000
v -0.094781 -0.013739 0.000000
vn -0.653227 -0.757162 0.000000
v -0.351903 -0.013739 0.000000
vn -0.653227 -0.655721 0.378582
v -0.351903 -0.011898 0.006869
vn 0.653227 -0.378580 0.655722
v -0.094781 -0.006869 0.011898
vn -0.653227 -0.378580 0.655722
v -0.351903 -0.006869 0.011898
vn 0.653227 0.000000 0.757162
v -0.094781 0.000000 0.013739
vn -0.653227 0.000001 0.757162
v -0.351903 0.000000 0.013739
vn 0.653227 0.378582 0.655721
v -0.094781 0.006869 0.011898
vn -0.653227 0.378582 0.655721
v -0.351903 0.006870 0.011898
vn 0.653226 0.655723 0.378581
v -0.094781 0.011898 0.006869
vn -0.653226 0.655722 0.378581
v -0.351903 0.011898 0.006869
vn 0.653226 0.757163 0.000000
v -0.094781 0.013739 0.000000
vn -0.653226 0.757163 -0.000001
v -0.351903 0.013739 0.000000
vn 0.653226 0.655723 -0.378581
v -0.094781 0.011898 -0.006869
vn -0.653227 0.655721 -0.378582
v -0.351903 0.011898 -0.006869
vn 0.653227 0.378582 -0.655721
v -0.094781 0.006869 -0.011898
vn -0.653227 0.378581 -0.655722
v -0.351903 0.006870 -0.011898
vn 0.653227 -0.000000 -0.757162
v -0.094781 0.000000 -0.013739
vn -0.653227 -0.000001 -0.757162
v -0.351903 0.000000 -0.013739
vn 0.653227 -0.378582 -0.655721
v -0.094781 -0.006869 -0.011898
vn -0.653227 -0.378582 -0.655721
v -0.351903 -0.006869 -0.011898
vn 0.653227 -0.655722 -0.378581
v -0.094781 -0.011898 -0.006869
vn -0.653227 -0.655722 -0.378581
v -0.351903 -0.011898 -0.006869
vn -1.000000 0.000000 0.000000
v -0.351903 0.000000 0.000000
vn 1.000000 0.000001 -0.000000
v -0.094781 0.000000 0.000000
vn 0.000001 -1.000000 -0.000000
v 0.000000 0.094781 0.000000
vn -0.757162 -0.653227 -0.000000
v -0.013739 0.094781 0.000000
vn -0.655722 -0.653227 -0.378581
v -0.011898 0.094781 -0.006869
vn 0.000000 1.000000 0.000000
v 0.000000 0.351903 0.000000
vn -0.655722 0.653227 -0.378581
v -0.011898 0.351903 -0.006869
vn -0.757162 0.653227 0.000001
v -0.013739 0.351903 0.000000
vn -0.378581 -0.653227 -0.655722
v -0.006869 0.094781 -0.011898
vn -0.378581 0.653227 -0.655721
v -0.006869 0.351903 -0.011898
vn -0.000000 -0.653227 -0.757162
v 0.000000 0.094781 -0.013739
vn -0.000001 0.653227 -0.757162
v 0.000000 0.351903 -0.013739
vn 0.378581 -0.653228 -0.655721
v 0.006869 0.094781 -0.011898
vn 0.378581 0.653227 -0.655722
v 0.006870 0.351903 -0.011898
vn 0.655723 -0.653226 -0.378581
v 0.011898 0.094781 -0.006869
vn 0.655721 0.653227 -0.378582
v 0.011898 0.351903 -0.006869
vn 0.757163 -0.653226 -0.000000
v 0.013739 0.094781 0.000000
vn 0.757163 0.653226 -0.000001
v 0.013739 0.351903 0.000000
vn 0.655723 -0.653226 0.378581
v 0.011898 0.094781 0.006869
vn 0.655723 0.653226 0.378581
v 0.011898 0.351903 0.006869
vn 0.378582 -0.653227 0.655721
v 0.006870 0.094781 0.011898
vn 0.378582 0.653226 0.655721
v 0.006870 0.351903 0.011898
vn 0.000000 -0.653227 0.757162
v 0.000000 0.094781 0.013739
vn 0.000001 0.653227 0.757162
v 0.000000 0.351903 0.013739
vn -0.378580 -0.653227 0.655722
v -0.006869 0.094781 0.011898
vn -0.378581 0.653227 0.655722
v -0.006869 0.351903 0.011898
vn -0.655722 -0.653227 0.378582
v -0.011898 0.094781 0.006869
vn -0.655721 0.653227 0.378582
v -0.011898 0.351903 0.006869
vn -0.382683 0.923877 -0.002497
v -0.064124 0.487245 0.037452
vn -0.000000 -0.000000 -1.000000
v 0.000000 0.332434 0.031600
vn -0.000001 0.999997 -0.002496
v 0.000000 0.500000 0.037452
vn 0.000000 -0.000000 1.000000
v 0.000000 0.332434 0.044240
vn -0.707104 0.707105 -0.002496
v -0.118487 0.450921 0.037452
vn -0.923876 0.382683 -0.002496
v -0.154810 0.396559 0.037452
vn -0.999997 0.000000 -0.002497
v -0.167566 0.332434 0.037452
vn -0.923877 -0.382682 -0.002496
v -0.154810 0.268310 0.037452
vn -0.707105 -0.707104 -0.002497
v -0.118487 0.213947 0.037452
vn -0.382682 -0.923877 -0.002497
v -0.064125 0.177624 0.037452
vn -0.000000 -0.999997 -0.002496
v 0.000000 0.164868 0.037452
vn 0.382682 -0.923877 -0.002497
v 0.064125 0.177624 0.037452
vn 0.707105 -0.707105 -0.002496
v 0.118487 0.213947 0.037452
vn 0.923877 -0.382683 -0.002497
v 0.154811 0.268310 0.037452
vn 0.999997 -0.000000 -0.002497
v 0.167566 0.332434 0.037452
vn 0.923877 0.382681 -0.002497
v 0.154811 0.396559 0.037452
vn 0.707105 0.707104 -0.002495
v 0.118487 0.450921 0.037452
vn 0.382682 0.923877 -0.002496
v 0.064125 0.487245 0.037452
vn 0.297109 0.717284 -0.630263
v 0.056880 0.094801 -0.050560
vn 0.297109 -0.717283 -0.630263
v 0.056880 -0.094801 -0.050560
vn -0.297108 -0.717284 -0.630262
v -0.056880 -0.094801 -0.050560
vn -0.297109 0.717284 -0.630262
v -0.056880 0.094801 -0.050560
vn 0.297109 0.717284 0.630262
v 0.056880 0.094801 0.050560
vn 0.297108 -0.717284 0.630262
v 0.056880 -0.094801 0.050560
vn -0.297109 -0.717284 0.630262
v -0.056880 -0.094801 0.050560
vn -0.297109 0.717283 0.630263
v -0.056880 0.094801 0.050560
vn 0.717283 0.297109 -0.630263
v 0.094801 0.056880 -0.050560
vn -0.717284 0.297109 -0.630262
v -0.094801 0.056880 -0.050560
vn 0.717284 0.297108 0.630262
v 0.094801 0.056880 0.050560
vn -0.717283 0.297109 0.630263
v -0.094801 0.056880 0.050560
vn 0.717283 -0.297108 -0.630263
v 0.094801 -0.056880 -0.050560
vn -0.717284 -0.297108 -0.630262
v -0.094801 -0.056880 -0.050560
vn 0.717284 -0.297109 0.630262
v 0.094801 -0.056880 0.050560
vn -0.717284 -0.297109 0.630262
v -0.094801 -0.056880 0.050560
# 192 vertices, 0 vertices normals

f 25//25 1//1 2//2
f 26//26 14//14 13//13
f 25//25 2//2 3//3
f 26//26 15//15 14//14
f 25//25 3//3 4//4
f 26//26 16//16 15//15
f 25//25 4//4 5//5
f 26//26 17//17 16//16
f 25//25 5//5 6//6
f 26//26 18//18 17//17
f 25//25 6//6 7//7
f 26//26 19//19 18//18
f 25//25 7//7 8//8
f 26//26 20//20 19//19
f 25//25 8//8 9//9
f 26//26 21//21 20//20
f 25//25 9//9 10//10
f 26//26 22//22 21//21
f 25//25 10//10 11//11
f 26//26 23//23 22//22
f 25//25 11//11 12//12
f 26//26 24//24 23//23
f 12//12 1//1 25//25
f 26//26 13//13 24//24
f 13//13 1//1 12//12
f 13//13 12//12 24//24
f 11//11 23//23 24//24
f 11//11 24//24 12//12
f 10//10 22//22 23//23
f 10//10 23//23 11//11
f 9//9 21//21 22//22
f 9//9 22//22 10//10
f 8//8 20//20 21//21
f 8//8 21//21 9//9
f 7//7 19//19 20//20
f 7//7 20//20 8//8
f 6//6 18//18 19//19
f 6//6 19//19 7//7
f 5//5 17//17 18//18
f 5//5 18//18 6//6
f 4//4 16//16 17//17
f 4//4 17//17 5//5
f 3//3 15//15 16//16
f 3//3 16//16 4//4
f 2//2 14//14 15//15
f 2//2 15//15 3//3
f 1//1 13//13 14//14
f 1//1 14//14 2//2
f 44//44 28//28 27//27
f 30//30 28//28 44//44
f 29//29 31//31 27//27
f 30//30 31//31 29//29
f 32//32 33//33 27//27
f 30//30 33//33 32//32
f 34//34 35//35 27//27
f 30//30 35//35 34//34
f 36//36 37//37 27//27
f 30//30 37//37 36//36
f 38//38 39//39 27//27
f 30//30 39//39 38//38
f 40//40 41//41 27//27
f 30//30 41//41 40//40
f 42//42 43//43 27//27
f 30//30 43//43 42//42
f 74//74 71//71 75//75
f 75//75 71//71 72//72
f 74//74 76//76 77//77
f 77//77 76//76 72//72
f 74//74 78//78 79//79
f 79//79 78//78 72//72
f 74//74 80//80 81//81
f 81//81 80//80 72//72
f 74//74 82//82 83//83
f 83//83 82//82 72//72
f 74//74 84//84 85//85
f 85//85 84//84 72//72
f 74//74 86//86 87//87
f 87//87 86//86 72//72
f 74//74 88//88 73//73
f 73//73 88//88 72//72
f 89//89 90//90 91//91
f 92//92 90//90 89//89
f 93//93 94//94 91//91
f 92//92 94//94 93//93
f 95//95 96//96 91//91
f 92//92 96//96 95//95
f 97//97 98//98 91//91
f 92//92 98//98 97//97
f 99//99 100//100 91//91
f 92//92 100//100 99//99
f 101//101 102//102 91//91
f 92//92 102//102 101//101
f 103//103 104//104 91//91
f 92//92 104//104 103//103
f 105//105 106//106 91//91
f 92//92 106//106 105//105
f 162//162 159//159 163//163
f 163//163 159//159 160//160
f 162//162 164//164 165//165
f 165//165 164//164 160//160
f 162//162 166//166 167//167
f 167//167 166//166 160//160
f 162//162 168//168 169//169
f 169//169 168//168 160//160
f 162//162 170//170 171//171
f 171//171 170//170 160//160
f 162//162 172//172 173//173
f 173//173 172//172 160//160
f 162//162 174//174 175//175
f 175//175 174//174 160//160
f 162//162 176//176 161//161
f 161//161 176//176 160//160
f 45//45 46//46 47//47
f 48//48 49//49 50//50
f 45//45 47//47 51//51
f 48//48 52//52 49//49
f 45//45 51//51 53//53
f 48//48 54//54 52//52
f 45//45 53//53 55//55
f 48//48 56//56 54//54
f 45//45 55//55 57//57
f 48//48 58//58 56//56
f 45//45 57//57 59//59
f 48//48 60//60 58//58
f 45//45 59//59 61//61
f 48//48 62//62 60//60
f 45//45 61//61 63//63
f 48//48 64//64 62//62
f 45//45 63//63 65//65
f 48//48 66//66 64//64
f 45//45 65//65 67//67
f 48//48 68//68 66//66
f 45//45 67//67 69//69
f 48//48 70//70 68//68
f 45//45 69//69 46//46
f 48//48 50//50 70//70
f 131//131 109//109 110//110
f 132//132 107//107 108//108
f 131//131 110//110 112//112
f 132//132 111//111 107//107
f 131//131 112//112 114//114
f 132//132 113//113 111//111
f 131//131 114//114 116//116
f 132//132 115//115 113//113
f 131//131 116//116 118//118
f 132//132 117//117 115//115
f 131//131 118//118 120//120
f 132//132 119//119 117//117
f 131//131 120//120 122//122
f 132//132 121//121 119//119
f 131//131 122//122 124//124
f 132//132 123//123 121//121
f 131//131 124//124 126//126
f 132//132 125//125 123//123
f 131//131 126//126 128//128
f 132//132 127//127 125//125
f 131//131 128//128 130//130
f 132//132 129//129 127//127
f 131//131 130//130 109//109
f 132//132 108//108 129//129
f 133//133 134//134 135//135
f 136//136 137//137 138//138
f 133//133 135//135 139//139
f 136//136 140//140 137//137
f 133//133 139//139 141//141
f 136//136 142//142 140//140
f 133//133 141//141 143//143
f 136//136 144//144 142//142
f 133//133 143//143 145//145
f 136//136 146//146 144//144
f 133//133 145//145 147//147
f 136//136 148//148 146//146
f 133//133 147//147 149//149
f 136//136 150//150 148//148
f 133//133 149//149 151//151
f 136//136 152//152 150//150
f 133//133 151//151 153//153
f 136//136 154//154 152//152
f 133//133 153//153 155//155
f 136//136 156//156 154//154
f 133//133 155//155 157//157
f 136//136 158//158 156//156
f 133//133 157//157 134//134
f 136//136 138//138 158//158
f 192//192 188//188 190//190
f 188//188 186//186 190//190
f 183//183 192//192 190//190
f 183//183 190//190 179//179
f 191//191 182//182 178//178
f 191//191 178//178 189//189
f 187//187 191//191 189//189
f 187//187 189//189 185//185
f 192//192 183//183 191//191
f 183//183 182//182 191//191
f 188//188 192//192 191//191
f 188//188 191//191 187//187
f 189//189 178//178 179//179
f 189//189 179//179 190//190
f 185//185 189//189 190//190
f 185//185 190//190 186//186
f 188//188 184//184 186//186
f 184//184 180//180 186//186
f 185//185 177//177 181//181
f 185//185 181//181 187//187
f 184//184 188//188 181//181
f 188//188 187//187 181//181
f 177//177 185//185 186//186
f 177//177 186//186 180//180
f 181//181 177//177 184//184
f 177//177 180//180 184//184
f 178//178 182//182 183//183
f 178//178 183//183 179//179
f 157//157 138//138 134//134
f 157//157 158//158 138//138
f 155//155 158//158 157//157
f 155//155 156//156 158//158
f 153//153 156//156 155//155
f 153//153 154//154 156//156
f 151//151 154//154 153//153
f 151//151 152//152 154//154
f 149//149 152//152 151//151
f 149//149 150//150 152//152
f 147//147 150//150 149//149
f 147//147 148//148 150//150
f 145//145 148//148 147//147
f 145//145 146//146 148//148
f 143//143 146//146 145//145
f 143//143 144//144 146//146
f 141//141 144//144 143//143
f 141//141 142//142 144//144
f 139//139 142//142 141//141
f 139//139 140//140 142//142
f 135//135 140//140 139//139
f 135//135 137//137 140//140
f 134//134 137//137 135//135
f 134//134 138//138 137//137
f 108//108 109//109 130//130
f 108//108 130//130 129//129
f 129//129 130//130 128//128
f 129//129 128//128 127//127
f 127//127 128//128 126//126
f 127//127 126//126 125//125
f 125//125 126//126 124//124
f 125//125 124//124 123//123
f 123//123 124//124 122//122
f 123//123 122//122 121//121
f 121//121 122//122 120//120
f 121//121 120//120 119//119
f 119//119 120//120 118//118
f 119//119 118//118 117//117
f 117//117 118//118 116//116
f 117//117 116//116 115//115
f 115//115 116//116 114//114
f 115//115 114//114 113//113
f 113//113 114//114 112//112
f 113//113 112//112 111//111
f 111//111 112//112 110//110
f 111//111 110//110 107//107
f 107//107 110//110 109//109
f 107//107 109//109 108//108
f 69//69 50//50 46//46
f 69//69 70//70 50//50
f 67//67 70//70 69//69
f 67//67 68//68 70//70
f 65//65 68//68 67//67
f 65//65 66//66 68//68
f 63//63 66//66 65//65
f 63//63 64//64 66//66
f 61//61 64//64 63//63
f 61//61 62//62 64//64
f 59//59 62//62 61//61
f 59//59 60//60 62//62
f 57//57 60//60 59//59
f 57//57 58//58 60//60
f 55//55 58//58 57//57
f 55//55 56//56 58//58
f 53//53 56//56 55//55
f 53//53 54//54 56//56
f 51//51 54//54 53//53
f 51//51 52//52 54//54
f 47//47 52//52 51//51
f 47//47 49//49 52//52
f 46//46 49//49 47//47
f 46//46 50//50 49//49
f 30//30 29//29 28//28
f 28//28 29//29 27//27
f 30//30 32//32 31//31
f 31//31 32//32 27//27
f 30//30 34//34 33//33
f 33//33 34//34 27//27
f 30//30 36//36 35//35
f 35//35 36//36 27//27
f 30//30 38//38 37//37
f 37//37 38//38 27//27
f 30//30 40//40 39//39
f 39//39 40//40 27//27
f 30//30 42//42 41//41
f 41//41 42//42 27//27
f 30//30 44//44 43//43
f 43//43 44//44 27//27
f 71//71 73//73 72//72
f 74//74 73//73 71//71
f 76//76 75//75 72//72
f 74//74 75//75 76//76
f 78//78 77//77 72//72
f 74//74 77//77 78//78
f 80//80 79//79 72//72
f 74//74 79//79 80//80
f 82//82 81//81 72//72
f 74//74 81//81 82//82
f 84//84 83//83 72//72
f 74//74 83//83 84//84
f 86//86 85//85 72//72
f 74//74 85//85 86//86
f 88//88 87//87 72//72
f 74//74 87//87 88//88
f 92//92 93//93 90//90
f 90//90 93//93 91//91
f 92//92 95//95 94//94
f 94//94 95//95 91//91
f 92//92 97//97 96//96
f 96//96 97//97 91//91
f 92//92 99//99 98//98
f 98//98 99//99 91//91
f 92//92 101//101 100//100
f 100//100 101//101 91//91
f 92//92 103//103 102//102
f 102//102 103//103 91//91
f 92//92 105//105 104//104
f 104//104 105//105 91//91
f 92//92 89//89 106//106
f 106//106 89//89 91//91
f 159//159 161//161 160//160
f 162//162 161//161 159//159
f 164//164 163//163 160//160
f 162//162 163//163 164//164
f 166//166 165//165 160//160
f 162//162 165//165 166//166
f 168//168 167//167 160//160
f 162//162 167//167 168//168
f 170//170 169//169 160//160
f 162//162 169//169 170//170
f 172//172 171//171 160//160
f 162//162 171//171 172//172
f 174//174 173//173 160//160
f 162//162 173//173 174//174
f 176//176 175//175 160//160
f 162//162 175//175 176//176
# 348 faces, 0 coords texture

# End of File
