####
#
# OBJ File Generated by Meshlab
#
####
# Object body5.obj
#
# Vertices: 6
# Faces: 8
#
####
vn 0.583580 0.583580 0.564684
v 0.058426 0.058426 0.050000
vn -0.790696 0.267721 0.550568
v -0.147801 0.030950 0.050000
vn 0.267721 -0.790696 0.550568
v 0.030950 -0.147801 0.050000
vn 0.267721 -0.790696 -0.550568
v 0.030950 -0.147801 -0.050000
vn 0.583580 0.583580 -0.564685
v 0.058426 0.058426 -0.050000
vn -0.790696 0.267721 -0.550568
v -0.147801 0.030950 -0.050000
# 6 vertices, 0 vertices normals

f 1//1 2//2 3//3
f 3//3 4//4 5//5
f 5//5 1//1 3//3
f 1//1 5//5 6//6
f 6//6 2//2 1//1
f 2//2 6//6 4//4
f 4//4 3//3 2//2
f 4//4 6//6 5//5
# 8 faces, 0 coords texture

# End of File
