####
#
# OBJ File Generated by Meshlab
#
####
# Object body1.obj
#
# Vertices: 26
# Faces: 48
#
####
vn -2.617870 3.034494 0.000000
v 0.094781 0.013739 0.000000
vn -2.618056 2.627966 -1.517365
v 0.094781 0.011898 -0.006869
vn -2.618056 1.517367 -2.627968
v 0.094781 0.006869 -0.011898
vn -2.617870 0.000000 -3.034494
v 0.094781 0.000000 -0.013739
vn -2.618056 -1.517365 -2.627966
v 0.094781 -0.006869 -0.011898
vn -2.618056 -2.627968 -1.517367
v 0.094781 -0.011898 -0.006869
vn -2.617870 -3.034494 -0.000000
v 0.094781 -0.013739 0.000000
vn -2.618056 -2.627966 1.517365
v 0.094781 -0.011898 0.006869
vn -2.618056 -1.517367 2.627968
v 0.094781 -0.006869 0.011898
vn -2.617870 -0.000000 3.034494
v 0.094781 0.000000 0.013739
vn -2.618056 1.517365 2.627966
v 0.094781 0.006869 0.011898
vn -2.618056 2.627968 1.517367
v 0.094781 0.011898 0.006869
vn 2.617870 3.034494 -0.000000
v 0.351903 0.013739 0.000000
vn 2.618056 2.627968 -1.517367
v 0.351903 0.011898 -0.006869
vn 2.618056 1.517365 -2.627966
v 0.351903 0.006869 -0.011898
vn 2.617870 -0.000000 -3.034494
v 0.351903 0.000000 -0.013739
vn 2.618056 -1.517367 -2.627968
v 0.351903 -0.006869 -0.011898
vn 2.618056 -2.627966 -1.517365
v 0.351903 -0.011898 -0.006869
vn 2.617870 -3.034494 0.000000
v 0.351903 -0.013739 0.000000
vn 2.618056 -2.627968 1.517367
v 0.351903 -0.011898 0.006869
vn 2.618056 -1.517365 2.627966
v 0.351903 -0.006869 0.011898
vn 2.617870 0.000000 3.034494
v 0.351903 0.000000 0.013739
vn 2.618056 1.517367 2.627968
v 0.351903 0.006869 0.011898
vn 2.618056 2.627966 1.517365
v 0.351903 0.011898 0.006869
vn -6.283185 0.000000 0.000000
v 0.094781 0.000000 0.000000
vn 6.283185 0.000000 0.000000
v 0.351903 0.000000 0.000000
# 26 vertices, 0 vertices normals

f 25//25 1//1 2//2
f 26//26 14//14 13//13
f 25//25 2//2 3//3
f 26//26 15//15 14//14
f 25//25 3//3 4//4
f 26//26 16//16 15//15
f 25//25 4//4 5//5
f 26//26 17//17 16//16
f 25//25 5//5 6//6
f 26//26 18//18 17//17
f 25//25 6//6 7//7
f 26//26 19//19 18//18
f 25//25 7//7 8//8
f 26//26 20//20 19//19
f 25//25 8//8 9//9
f 26//26 21//21 20//20
f 25//25 9//9 10//10
f 26//26 22//22 21//21
f 25//25 10//10 11//11
f 26//26 23//23 22//22
f 25//25 11//11 12//12
f 26//26 24//24 23//23
f 12//12 1//1 25//25
f 26//26 13//13 24//24
f 13//13 1//1 12//12
f 13//13 12//12 24//24
f 11//11 23//23 24//24
f 11//11 24//24 12//12
f 10//10 22//22 23//23
f 10//10 23//23 11//11
f 9//9 21//21 22//22
f 9//9 22//22 10//10
f 8//8 20//20 21//21
f 8//8 21//21 9//9
f 7//7 19//19 20//20
f 7//7 20//20 8//8
f 6//6 18//18 19//19
f 6//6 19//19 7//7
f 5//5 17//17 18//18
f 5//5 18//18 6//6
f 4//4 16//16 17//17
f 4//4 17//17 5//5
f 3//3 15//15 16//16
f 3//3 16//16 4//4
f 2//2 14//14 15//15
f 2//2 15//15 3//3
f 1//1 13//13 14//14
f 1//1 14//14 2//2
# 48 faces, 0 coords texture

# End of File
