####
#
# OBJ File Generated by Meshlab
#
####
# Object propeller1.obj
#
# Vertices: 18
# Faces: 32
#
####
vn -0.000000 0.000000 -6.275332
v 0.332434 0.000000 0.031600
vn 0.191448 -0.079301 -0.000517
v 0.487245 -0.064125 0.037452
vn 0.146530 -0.146530 -0.000517
v 0.450921 -0.118487 0.037452
vn -0.000000 -0.000000 6.272620
v 0.332434 0.000000 0.044240
vn 0.079301 -0.191448 -0.000517
v 0.396559 -0.154811 0.037452
vn -0.000000 -0.207224 -0.000517
v 0.332434 -0.167566 0.037452
vn -0.079301 -0.191450 -0.000517
v 0.268310 -0.154811 0.037452
vn -0.146529 -0.146528 -0.000517
v 0.213947 -0.118487 0.037452
vn -0.191451 -0.079302 -0.000517
v 0.177624 -0.064125 0.037452
vn -0.207222 -0.000000 -0.000517
v 0.164868 -0.000000 0.037452
vn -0.191451 0.079302 -0.000517
v 0.177624 0.064125 0.037452
vn -0.146529 0.146528 -0.000517
v 0.213947 0.118487 0.037452
vn -0.079301 0.191450 -0.000517
v 0.268310 0.154811 0.037452
vn -0.000000 0.207224 -0.000517
v 0.332434 0.167566 0.037452
vn 0.079301 0.191448 -0.000517
v 0.396559 0.154811 0.037452
vn 0.146530 0.146530 -0.000517
v 0.450921 0.118487 0.037452
vn 0.191448 0.079301 -0.000517
v 0.487245 0.064125 0.037452
vn 0.207224 0.000000 -0.000517
v 0.500000 0.000000 0.037452
# 18 vertices, 0 vertices normals

f 18//18 2//2 1//1
f 4//4 2//2 18//18
f 3//3 5//5 1//1
f 4//4 5//5 3//3
f 6//6 7//7 1//1
f 4//4 7//7 6//6
f 8//8 9//9 1//1
f 4//4 9//9 8//8
f 10//10 11//11 1//1
f 4//4 11//11 10//10
f 12//12 13//13 1//1
f 4//4 13//13 12//12
f 14//14 15//15 1//1
f 4//4 15//15 14//14
f 16//16 17//17 1//1
f 4//4 17//17 16//16
f 4//4 3//3 2//2
f 2//2 3//3 1//1
f 4//4 6//6 5//5
f 5//5 6//6 1//1
f 4//4 8//8 7//7
f 7//7 8//8 1//1
f 4//4 10//10 9//9
f 9//9 10//10 1//1
f 4//4 12//12 11//11
f 11//11 12//12 1//1
f 4//4 14//14 13//13
f 13//13 14//14 1//1
f 4//4 16//16 15//15
f 15//15 16//16 1//1
f 4//4 18//18 17//17
f 17//17 18//18 1//1
# 32 faces, 0 coords texture

# End of File
