####
#
# OBJ File Generated by Meshlab
#
####
# Object propeller4.obj
#
# Vertices: 18
# Faces: 32
#
####
vn -0.079301 0.191450 -0.000517
v -0.064124 0.487245 0.037452
vn -0.000000 -0.000000 -6.275331
v 0.000000 0.332434 0.031600
vn -0.000000 0.207224 -0.000517
v 0.000000 0.500000 0.037452
vn -0.000000 -0.000000 6.272620
v 0.000000 0.332434 0.044240
vn -0.146529 0.146528 -0.000517
v -0.118487 0.450921 0.037452
vn -0.191451 0.079302 -0.000517
v -0.154810 0.396559 0.037452
vn -0.207221 -0.000000 -0.000517
v -0.167566 0.332434 0.037452
vn -0.191453 -0.079302 -0.000517
v -0.154810 0.268310 0.037452
vn -0.146528 -0.146527 -0.000517
v -0.118487 0.213947 0.037452
vn -0.079302 -0.191451 -0.000517
v -0.064125 0.177624 0.037452
vn 0.000000 -0.207222 -0.000517
v 0.000000 0.164868 0.037452
vn 0.079302 -0.191451 -0.000517
v 0.064125 0.177624 0.037452
vn 0.146528 -0.146529 -0.000517
v 0.118487 0.213947 0.037452
vn 0.191450 -0.079301 -0.000517
v 0.154811 0.268310 0.037452
vn 0.207224 -0.000000 -0.000517
v 0.167566 0.332434 0.037452
vn 0.191448 0.079301 -0.000517
v 0.154811 0.396559 0.037452
vn 0.146530 0.146530 -0.000517
v 0.118487 0.450921 0.037452
vn 0.079301 0.191448 -0.000517
v 0.064125 0.487245 0.037452
# 18 vertices, 0 vertices normals

f 4//4 1//1 5//5
f 5//5 1//1 2//2
f 4//4 6//6 7//7
f 7//7 6//6 2//2
f 4//4 8//8 9//9
f 9//9 8//8 2//2
f 4//4 10//10 11//11
f 11//11 10//10 2//2
f 4//4 12//12 13//13
f 13//13 12//12 2//2
f 4//4 14//14 15//15
f 15//15 14//14 2//2
f 4//4 16//16 17//17
f 17//17 16//16 2//2
f 4//4 18//18 3//3
f 3//3 18//18 2//2
f 1//1 3//3 2//2
f 4//4 3//3 1//1
f 6//6 5//5 2//2
f 4//4 5//5 6//6
f 8//8 7//7 2//2
f 4//4 7//7 8//8
f 10//10 9//9 2//2
f 4//4 9//9 10//10
f 12//12 11//11 2//2
f 4//4 11//11 12//12
f 14//14 13//13 2//2
f 4//4 13//13 14//14
f 16//16 15//15 2//2
f 4//4 15//15 16//16
f 18//18 17//17 2//2
f 4//4 17//17 18//18
# 32 faces, 0 coords texture

# End of File
